<?xml version="1.0" encoding="UTF-8"?>
<svg version="1.1" xmlns="http://www.w3.org/2000/svg" width="1024" height="1024">
<path d="M0 0 C337.92 0 675.84 0 1024 0 C1024 337.92 1024 675.84 1024 1024 C686.08 1024 348.16 1024 0 1024 C0 686.08 0 348.16 0 0 Z " fill="#FDFDFD" transform="translate(0,0)"/>
<path d="M0 0 C4.22285077 1.80700476 8.1157943 4.09694592 12.0625 6.4375 C13.17939209 7.08203125 14.29628418 7.7265625 15.44702148 8.390625 C18.64286835 10.24159644 21.824079 12.11509089 25 14 C25.73734375 14.43586426 26.4746875 14.87172852 27.234375 15.32080078 C30.18693137 17.07083096 33.12613099 18.84154446 36.05859375 20.625 C41.04381276 23.64618646 46.08695805 26.56807828 51.125 29.5 C60.19388795 34.78081893 69.25806862 40.06943943 78.3125 45.375 C78.92044403 45.73116394 79.52838806 46.08732788 80.15475464 46.45428467 C89.01708264 51.6477105 97.85728212 56.87712984 106.6875 62.125 C115.56593036 67.401228 124.48234242 72.60511349 133.4375 77.75 C141.66992946 82.48122528 149.85939942 87.2708712 157.98901367 92.17651367 C165.72110614 96.84173371 173.48356997 101.45477095 181.25 106.0625 C182.62680246 106.87969967 184.00359275 107.69691985 185.38037109 108.51416016 C191.6373813 112.22772314 197.89575943 115.9389592 204.15693665 119.64549255 C218.77412869 128.29937552 233.36535874 136.99070724 247.86450195 145.84130859 C253.59673066 149.33760847 259.34262836 152.80625488 265.125 156.21875 C266.28204198 156.90387079 267.43902537 157.58909051 268.59594727 158.27441406 C270.75939877 159.55348541 272.92634702 160.82666826 275.09741211 162.09277344 C281.3045486 165.76916092 285.95889875 168.93834812 290 175 C290.25299966 177.78828788 290.25299966 177.78828788 290.25726891 181.25295639 C290.2637178 182.57133617 290.27016669 183.88971595 290.276811 185.24804664 C290.27386841 186.72003196 290.27073295 188.19201691 290.26742554 189.66400146 C290.27115979 191.22077857 290.2757604 192.7775538 290.28115618 194.33432603 C290.29342974 198.62384996 290.29312061 202.91329615 290.29076743 207.20283365 C290.29036036 211.8246472 290.30138802 216.44643545 290.31088257 221.0682373 C290.32751793 230.12806951 290.33299328 239.18787569 290.33410732 248.24772188 C290.3350567 255.61077192 290.33916146 262.97381334 290.34550858 270.33686066 C290.36312873 291.20126667 290.37234636 312.06565209 290.37084763 332.9300656 C290.37072776 334.61838918 290.37072776 334.61838918 290.37060547 336.34082031 C290.37052371 337.46774002 290.37044195 338.59465972 290.37035771 339.75572851 C290.36954482 358.01878151 290.38868104 376.28175204 290.4168822 394.54478118 C290.44559418 413.28617151 290.45942339 432.0275216 290.45769465 450.76893449 C290.45703011 461.29516725 290.46255012 471.82131357 290.48405075 482.34752655 C290.50224048 491.31045976 290.50662816 500.27326738 290.4930319 509.23621103 C290.48649078 513.81023888 290.48642617 518.38402562 290.5037384 522.9580307 C290.51942402 527.14531553 290.51665192 531.33216718 290.49917014 535.51944116 C290.49609023 537.03427276 290.49976986 538.54913633 290.51089029 540.06393024 C290.60800198 554.23049462 290.60800198 554.23049462 286 560 C281.38916465 563.65024465 277.72387967 565.12264403 271.92167497 565.12880117 C270.70719546 565.13370946 270.70719546 565.13370946 269.46818101 565.13871691 C268.5825424 565.13723328 267.69690379 565.13574966 266.78442764 565.13422108 C265.83671977 565.13657331 264.88901191 565.13892554 263.91258562 565.14134905 C260.71272881 565.14804636 257.51291255 565.1475806 254.31304932 565.14717102 C252.0054098 565.15046918 249.69777086 565.15419464 247.39013267 565.1583125 C241.02973278 565.16834588 234.66934233 565.17205144 228.30893564 565.17470181 C222.15984255 565.17772031 216.01075593 565.18634757 209.86166758 565.19424575 C193.38498442 565.21509285 176.90829947 565.22555996 160.43160619 565.23437535 C152.63869401 565.23858107 144.84578259 565.24380313 137.05287106 565.24905988 C110.38230649 565.26694939 83.7117417 565.28194631 57.04117203 565.28938007 C55.36671817 565.28985483 53.69226431 565.29033072 52.01781045 565.29080774 C51.18742542 565.29104411 50.35704038 565.29128049 49.50149217 565.29152403 C45.29428905 565.29272524 41.08708593 565.29394068 36.87988281 565.29516602 C36.04494852 565.29540617 35.21001423 565.29564632 34.3497789 565.29589374 C7.27139509 565.30378893 -19.80694495 565.32722564 -46.88530965 565.35972196 C-75.50738084 565.39400823 -104.12942642 565.41373004 -132.75151849 565.41702431 C-135.89261644 565.41744186 -139.03371438 565.41792143 -142.17481232 565.41844749 C-142.9482512 565.41857069 -143.72169008 565.41869388 -144.51856651 565.4188208 C-156.97283431 565.4211542 -169.42705133 565.4368218 -181.88130102 565.45728934 C-194.39592489 565.47753009 -206.91048765 565.48303293 -219.42512485 565.47351871 C-226.20680129 565.46875717 -232.98830267 565.47094487 -239.7699585 565.49028015 C-245.97539702 565.50782023 -252.18054876 565.50698863 -258.38598993 565.49138286 C-260.63364598 565.48899285 -262.88132141 565.49340187 -265.12894771 565.50521151 C-268.18000359 565.52025255 -271.23003309 565.51071131 -274.28106308 565.49498463 C-275.15733703 565.50520683 -276.03361098 565.51542904 -276.93643868 565.52596101 C-283.35488779 565.4535644 -288.75529979 564.00380295 -293.56335376 559.55271478 C-297.85439879 554.70405394 -298.12373631 550.93565288 -298.14260101 544.65802383 C-298.14890895 543.34523649 -298.15521689 542.03244915 -298.16171598 540.67988038 C-298.16369955 539.21938735 -298.16557651 537.75889417 -298.1673584 536.29840088 C-298.17280535 534.74972379 -298.17866887 533.20104811 -298.18491411 531.65237403 C-298.20076774 527.38986947 -298.21028144 523.12737067 -298.21867895 518.86484575 C-298.22668289 515.21053574 -298.23837335 511.55624127 -298.25009376 507.90194157 C-298.29199445 494.81485626 -298.31920373 481.7277527 -298.34375 468.640625 C-298.3457249 467.60802563 -298.3476998 466.57542626 -298.34973454 465.511536 C-298.38889203 445.01204621 -298.42259791 424.51255034 -298.44481659 404.01303482 C-298.44978595 399.50641114 -298.45483028 394.99978756 -298.45996094 390.49316406 C-298.46123161 389.3730534 -298.46250228 388.25294273 -298.46381146 387.09888932 C-298.48518001 368.94645125 -298.53418491 350.79419399 -298.59420508 332.64184693 C-298.65530336 314.01003906 -298.69000098 295.37832455 -298.6992898 276.74641776 C-298.70520416 266.28322532 -298.7229913 255.82033935 -298.77067566 245.3572464 C-298.81124064 236.44811377 -298.82816788 227.53933764 -298.81402284 218.63011673 C-298.80754832 214.08410747 -298.81245482 209.53885783 -298.84789658 204.9929657 C-298.88009196 200.83006765 -298.87990034 196.66846572 -298.85407954 192.50553486 C-298.85042989 191.00079129 -298.85859595 189.49596223 -298.87986106 187.99136451 C-299.04752919 175.36598279 -299.04752919 175.36598279 -294.65245819 170.19831467 C-291.46969773 167.15401285 -288.11695602 164.84968413 -284.30078125 162.66015625 C-283.67683472 162.29614212 -283.05288818 161.93212799 -282.41003418 161.55708313 C-280.38486646 160.37897775 -278.34890779 159.22104669 -276.3125 158.0625 C-274.87686337 157.23102772 -273.44222609 156.39782777 -272.00854492 155.56298828 C-269.81235853 154.28421367 -267.61571572 153.00634741 -265.41596985 151.73370361 C-258.4822997 147.71996948 -251.6437047 143.55995711 -244.8125 139.375 C-233.33441513 132.37101906 -221.75863254 125.54448359 -210.14709473 118.76455688 C-204.76705841 115.62310033 -199.39675018 112.46861687 -194.0625 109.25 C-178.84012024 100.07102763 -163.48793734 91.10950242 -148.14788818 82.12915039 C-141.57997267 78.28338383 -135.01639839 74.43270359 -128.5 70.5 C-121.49351667 66.27335112 -114.43560057 62.13535711 -107.375 58 C-106.44158783 57.45329147 -106.44158783 57.45329147 -105.48931885 56.89553833 C-100.99347801 54.26266886 -96.49677598 51.63127187 -92 49 C-87.12440788 46.14684393 -82.2493004 43.29286233 -77.375 40.4375 C-76.77658295 40.08698578 -76.17816589 39.73647156 -75.56161499 39.37533569 C-66.75389 34.21507017 -57.96536931 29.02339285 -49.1875 23.8125 C-40.32901546 18.55490909 -31.45712655 13.32124556 -22.5625 8.125 C-21.55533936 7.53565674 -20.54817871 6.94631348 -19.51049805 6.33911133 C-18.11504761 5.52543091 -18.11504761 5.52543091 -16.69140625 4.6953125 C-15.87873291 4.22109863 -15.06605957 3.74688477 -14.22875977 3.25830078 C-9.38974998 0.52631958 -5.66008009 -1.10843717 0 0 Z " fill="#FCFDFD" transform="translate(516,225)"/>
<path d="M0 0 C4.22285077 1.80700476 8.1157943 4.09694592 12.0625 6.4375 C13.17939209 7.08203125 14.29628418 7.7265625 15.44702148 8.390625 C18.64286835 10.24159644 21.824079 12.11509089 25 14 C25.73734375 14.43586426 26.4746875 14.87172852 27.234375 15.32080078 C30.18693137 17.07083096 33.12613099 18.84154446 36.05859375 20.625 C41.04381276 23.64618646 46.08695805 26.56807828 51.125 29.5 C60.19388795 34.78081893 69.25806862 40.06943943 78.3125 45.375 C78.92044403 45.73116394 79.52838806 46.08732788 80.15475464 46.45428467 C89.01708264 51.6477105 97.85728212 56.87712984 106.6875 62.125 C115.56593036 67.401228 124.48234242 72.60511349 133.4375 77.75 C141.66992946 82.48122528 149.85939942 87.2708712 157.98901367 92.17651367 C165.72110614 96.84173371 173.48356997 101.45477095 181.25 106.0625 C182.62680246 106.87969967 184.00359275 107.69691985 185.38037109 108.51416016 C191.6373813 112.22772314 197.89575943 115.9389592 204.15693665 119.64549255 C218.77412869 128.29937552 233.36535874 136.99070724 247.86450195 145.84130859 C253.59673066 149.33760847 259.34262836 152.80625488 265.125 156.21875 C266.28204198 156.90387079 267.43902537 157.58909051 268.59594727 158.27441406 C270.75939877 159.55348541 272.92634702 160.82666826 275.09741211 162.09277344 C281.3045486 165.76916092 285.95889875 168.93834812 290 175 C290.25299966 177.78828788 290.25299966 177.78828788 290.25726891 181.25295639 C290.2637178 182.57133617 290.27016669 183.88971595 290.276811 185.24804664 C290.27386841 186.72003196 290.27073295 188.19201691 290.26742554 189.66400146 C290.27115979 191.22077857 290.2757604 192.7775538 290.28115618 194.33432603 C290.29342974 198.62384996 290.29312061 202.91329615 290.29076743 207.20283365 C290.29036036 211.8246472 290.30138802 216.44643545 290.31088257 221.0682373 C290.32751793 230.12806951 290.33299328 239.18787569 290.33410732 248.24772188 C290.3350567 255.61077192 290.33916146 262.97381334 290.34550858 270.33686066 C290.36312873 291.20126667 290.37234636 312.06565209 290.37084763 332.9300656 C290.37072776 334.61838918 290.37072776 334.61838918 290.37060547 336.34082031 C290.37052371 337.46774002 290.37044195 338.59465972 290.37035771 339.75572851 C290.36954482 358.01878151 290.38868104 376.28175204 290.4168822 394.54478118 C290.44559418 413.28617151 290.45942339 432.0275216 290.45769465 450.76893449 C290.45703011 461.29516725 290.46255012 471.82131357 290.48405075 482.34752655 C290.50224048 491.31045976 290.50662816 500.27326738 290.4930319 509.23621103 C290.48649078 513.81023888 290.48642617 518.38402562 290.5037384 522.9580307 C290.51942402 527.14531553 290.51665192 531.33216718 290.49917014 535.51944116 C290.49609023 537.03427276 290.49976986 538.54913633 290.51089029 540.06393024 C290.60800198 554.23049462 290.60800198 554.23049462 286 560 C281.38916465 563.65024465 277.72387967 565.12264403 271.92167497 565.12880117 C270.70719546 565.13370946 270.70719546 565.13370946 269.46818101 565.13871691 C268.5825424 565.13723328 267.69690379 565.13574966 266.78442764 565.13422108 C265.83671977 565.13657331 264.88901191 565.13892554 263.91258562 565.14134905 C260.71272881 565.14804636 257.51291255 565.1475806 254.31304932 565.14717102 C252.0054098 565.15046918 249.69777086 565.15419464 247.39013267 565.1583125 C241.02973278 565.16834588 234.66934233 565.17205144 228.30893564 565.17470181 C222.15984255 565.17772031 216.01075593 565.18634757 209.86166758 565.19424575 C193.38498442 565.21509285 176.90829947 565.22555996 160.43160619 565.23437535 C152.63869401 565.23858107 144.84578259 565.24380313 137.05287106 565.24905988 C110.38230649 565.26694939 83.7117417 565.28194631 57.04117203 565.28938007 C55.36671817 565.28985483 53.69226431 565.29033072 52.01781045 565.29080774 C51.18742542 565.29104411 50.35704038 565.29128049 49.50149217 565.29152403 C45.29428905 565.29272524 41.08708593 565.29394068 36.87988281 565.29516602 C36.04494852 565.29540617 35.21001423 565.29564632 34.3497789 565.29589374 C7.27139509 565.30378893 -19.80694495 565.32722564 -46.88530965 565.35972196 C-75.50738084 565.39400823 -104.12942642 565.41373004 -132.75151849 565.41702431 C-135.89261644 565.41744186 -139.03371438 565.41792143 -142.17481232 565.41844749 C-142.9482512 565.41857069 -143.72169008 565.41869388 -144.51856651 565.4188208 C-156.97283431 565.4211542 -169.42705133 565.4368218 -181.88130102 565.45728934 C-194.39592489 565.47753009 -206.91048765 565.48303293 -219.42512485 565.47351871 C-226.20680129 565.46875717 -232.98830267 565.47094487 -239.7699585 565.49028015 C-245.97539702 565.50782023 -252.18054876 565.50698863 -258.38598993 565.49138286 C-260.63364598 565.48899285 -262.88132141 565.49340187 -265.12894771 565.50521151 C-268.18000359 565.52025255 -271.23003309 565.51071131 -274.28106308 565.49498463 C-275.15733703 565.50520683 -276.03361098 565.51542904 -276.93643868 565.52596101 C-283.35488779 565.4535644 -288.75529979 564.00380295 -293.56335376 559.55271478 C-297.85439879 554.70405394 -298.12373631 550.93565288 -298.14260101 544.65802383 C-298.14890895 543.34523649 -298.15521689 542.03244915 -298.16171598 540.67988038 C-298.16369955 539.21938735 -298.16557651 537.75889417 -298.1673584 536.29840088 C-298.17280535 534.74972379 -298.17866887 533.20104811 -298.18491411 531.65237403 C-298.20076774 527.38986947 -298.21028144 523.12737067 -298.21867895 518.86484575 C-298.22668289 515.21053574 -298.23837335 511.55624127 -298.25009376 507.90194157 C-298.29199445 494.81485626 -298.31920373 481.7277527 -298.34375 468.640625 C-298.3457249 467.60802563 -298.3476998 466.57542626 -298.34973454 465.511536 C-298.38889203 445.01204621 -298.42259791 424.51255034 -298.44481659 404.01303482 C-298.44978595 399.50641114 -298.45483028 394.99978756 -298.45996094 390.49316406 C-298.46123161 389.3730534 -298.46250228 388.25294273 -298.46381146 387.09888932 C-298.48518001 368.94645125 -298.53418491 350.79419399 -298.59420508 332.64184693 C-298.65530336 314.01003906 -298.69000098 295.37832455 -298.6992898 276.74641776 C-298.70520416 266.28322532 -298.7229913 255.82033935 -298.77067566 245.3572464 C-298.81124064 236.44811377 -298.82816788 227.53933764 -298.81402284 218.63011673 C-298.80754832 214.08410747 -298.81245482 209.53885783 -298.84789658 204.9929657 C-298.88009196 200.83006765 -298.87990034 196.66846572 -298.85407954 192.50553486 C-298.85042989 191.00079129 -298.85859595 189.49596223 -298.87986106 187.99136451 C-299.04752919 175.36598279 -299.04752919 175.36598279 -294.65245819 170.19831467 C-291.46969773 167.15401285 -288.11695602 164.84968413 -284.30078125 162.66015625 C-283.67683472 162.29614212 -283.05288818 161.93212799 -282.41003418 161.55708313 C-280.38486646 160.37897775 -278.34890779 159.22104669 -276.3125 158.0625 C-274.87686337 157.23102772 -273.44222609 156.39782777 -272.00854492 155.56298828 C-269.81235853 154.28421367 -267.61571572 153.00634741 -265.41596985 151.73370361 C-258.4822997 147.71996948 -251.6437047 143.55995711 -244.8125 139.375 C-233.33441513 132.37101906 -221.75863254 125.54448359 -210.14709473 118.76455688 C-204.76705841 115.62310033 -199.39675018 112.46861687 -194.0625 109.25 C-178.84012024 100.07102763 -163.48793734 91.10950242 -148.14788818 82.12915039 C-141.57997267 78.28338383 -135.01639839 74.43270359 -128.5 70.5 C-121.49351667 66.27335112 -114.43560057 62.13535711 -107.375 58 C-106.44158783 57.45329147 -106.44158783 57.45329147 -105.48931885 56.89553833 C-100.99347801 54.26266886 -96.49677598 51.63127187 -92 49 C-87.12440788 46.14684393 -82.2493004 43.29286233 -77.375 40.4375 C-76.77658295 40.08698578 -76.17816589 39.73647156 -75.56161499 39.37533569 C-66.75389 34.21507017 -57.96536931 29.02339285 -49.1875 23.8125 C-40.32901546 18.55490909 -31.45712655 13.32124556 -22.5625 8.125 C-21.55533936 7.53565674 -20.54817871 6.94631348 -19.51049805 6.33911133 C-18.11504761 5.52543091 -18.11504761 5.52543091 -16.69140625 4.6953125 C-15.87873291 4.22109863 -15.06605957 3.74688477 -14.22875977 3.25830078 C-9.38974998 0.52631958 -5.66008009 -1.10843717 0 0 Z M-7.75 53.17578125 C-8.8225 53.88089844 -9.895 54.58601563 -11 55.3125 C-12.33009485 56.16059668 -13.66232868 57.00534336 -14.99609375 57.84765625 C-16.15214111 58.58459717 -16.15214111 58.58459717 -17.33154297 59.33642578 C-22.21322809 62.37977459 -27.19758776 65.25123569 -32.16821289 68.14608765 C-35.35598846 70.00379169 -38.53918768 71.86930308 -41.72265625 73.734375 C-42.34902985 74.10116867 -42.97540344 74.46796234 -43.62075806 74.84587097 C-49.08921893 78.04921111 -54.54646809 81.27131244 -60 84.5 C-68.34222204 89.43710687 -76.69884288 94.34932778 -85.0625 99.25 C-85.67070587 99.6063855 -86.27891174 99.962771 -86.9055481 100.32995605 C-91.89834093 103.25532466 -96.8917276 106.1796791 -101.88513184 109.10400391 C-117.39469852 118.18718782 -132.89551622 127.28434922 -148.36279297 136.43945312 C-152.90719099 139.12856553 -157.45372726 141.8140587 -162 144.5 C-163.83334305 145.58331689 -165.66667639 146.66665021 -167.5 147.75 C-178.5 154.25 -189.5 160.75 -200.5 167.25 C-201.40830566 167.7867334 -202.31661133 168.3234668 -203.25244141 168.87646484 C-205.07761077 169.95495927 -206.9028059 171.03341011 -208.72802734 172.11181641 C-213.43648632 174.89381995 -218.14443494 177.67668171 -222.8515625 180.4609375 C-223.81835938 181.03263672 -224.78515625 181.60433594 -225.78125 182.19335938 C-227.60173257 183.26989474 -229.42205981 184.34669286 -231.2421875 185.42382812 C-232.08265625 185.92076172 -232.923125 186.41769531 -233.7890625 186.9296875 C-234.96465292 187.64715059 -234.96465292 187.64715059 -236.16399264 188.37910789 C-239 190 -239 190 -242.08314824 191.37306315 C-248.35272557 194.26403114 -248.35272557 194.26403114 -252.10066366 199.7477988 C-252.51873613 203.22520349 -252.54267193 206.52671101 -252.4430542 210.02818298 C-252.4533073 211.34498426 -252.4635604 212.66178555 -252.47412419 214.0184899 C-252.50090646 217.66417532 -252.45305681 221.30561491 -252.39278746 224.95075905 C-252.34089325 228.8845472 -252.35850705 232.81810202 -252.36761475 236.75213623 C-252.37390285 243.56466734 -252.33630251 250.37581784 -252.26876068 257.18800163 C-252.17117305 267.036986 -252.13997757 276.88530379 -252.12490478 286.73471922 C-252.0986505 302.71488192 -252.01881807 318.69430895 -251.90527344 334.67407227 C-251.79510016 350.19551983 -251.71030951 365.71676645 -251.65917969 381.23852539 C-251.65596372 382.20526788 -251.65274775 383.17201037 -251.64943433 384.16804808 C-251.6244808 391.7287755 -251.60099787 399.2895073 -251.57797956 406.85024083 C-251.46480427 443.90083582 -251.22338215 480.94958894 -251 518 C-201.17 518 -151.34 518 -100 518 C-99.829494 475.81622968 -99.829494 475.81622968 -99.70214844 433.63232422 C-99.65673828 425.47094727 -99.65673828 425.47094727 -99.63043213 421.64944458 C-99.61582279 418.98196934 -99.60756794 416.31518615 -99.60845947 413.6477356 C-99.60937616 409.6058309 -99.57873543 405.56472055 -99.54589844 401.52294922 C-99.55343454 399.74255406 -99.55343454 399.74255406 -99.56112289 397.92619133 C-99.48126292 391.65858559 -99.26086288 387.74050635 -95 383 C-90.63430195 379.16347747 -86.99468036 378.8733449 -81.30168152 378.85955811 C-80.2751315 378.85510142 -80.2751315 378.85510142 -79.22784311 378.8505547 C-76.92947097 378.84186752 -74.63115093 378.84035944 -72.33276367 378.83886719 C-70.68690377 378.83423903 -69.04104495 378.82921437 -67.39518738 378.82382202 C-62.91989869 378.81069582 -58.444625 378.80425263 -53.96932006 378.79981136 C-51.1736854 378.79688099 -48.37805485 378.79277625 -45.58242226 378.78830719 C-36.83654906 378.77463168 -28.09068523 378.76496529 -19.34480208 378.7611053 C-9.24707269 378.75662427 0.85052135 378.73907452 10.94820958 378.7101047 C18.75212374 378.68849237 26.5559998 378.67840126 34.35994357 378.67706418 C39.02148208 378.67601583 43.68289338 378.67010165 48.34440041 378.65224457 C52.7299318 378.63577164 57.11524025 378.63360457 61.50079155 378.64238358 C63.10922467 378.64315437 64.71766974 378.63880564 66.32607269 378.62892532 C68.52455727 378.61621363 70.72225125 378.62207773 72.92073059 378.63250732 C74.15019315 378.63104076 75.3796557 378.6295742 76.6463747 378.6280632 C81.69078319 379.18751781 84.92300971 380.80657833 88.3125 384.5625 C90.75471582 388.09014508 91.12929709 389.88228665 91.15821838 394.1378479 C91.17287942 395.76670897 91.17287942 395.76670897 91.18783665 397.42847633 C91.1936069 398.62979887 91.19937716 399.83112141 91.20532227 401.06884766 C91.22037135 402.98721719 91.22037135 402.98721719 91.23572445 404.94434166 C91.26281611 408.41044008 91.28397042 411.87655121 91.30391693 415.34269714 C91.32351266 418.59266669 91.34843353 421.84259345 91.3729248 425.0925293 C91.4414815 434.60331571 91.50146435 444.11416235 91.5625 453.625 C91.706875 474.86875 91.85125 496.1125 92 518 C142.16 518 192.32 518 244 518 C244.58275764 461.41826592 244.58275764 461.41826592 244.9765625 404.8359375 C245.01571856 397.20409287 245.05612779 389.57225644 245.09863281 381.94042969 C245.10390779 380.98393548 245.10918276 380.02744127 245.11461759 379.04196239 C245.20155046 363.60988285 245.35919181 348.17929731 245.54305592 332.74810299 C245.73024586 316.90536444 245.84120733 301.06340659 245.8817699 285.21960759 C245.90918384 275.44605043 245.99566343 265.67671376 246.15832934 255.90445653 C246.26425359 249.19839946 246.29596155 242.49451573 246.27002755 235.78768334 C246.2572392 231.91909737 246.2764593 228.05786542 246.3841095 224.19059753 C247.38691238 209.03846036 247.38691238 209.03846036 242.0460043 195.61331081 C237.33130004 191.64026058 232.15450135 189.16692695 226.4288106 186.97638369 C222.92970118 185.56973907 219.89020358 183.69254773 216.6875 181.70703125 C214.45864435 180.40832025 212.22947606 179.11014567 210 177.8125 C199.99787031 171.97866972 190.06913541 166.0354939 180.1875 160 C172.57743143 155.35290762 164.95638902 150.75770013 157.14770508 146.45019531 C150.64680728 142.84739077 144.26404722 139.04657735 137.875 135.25 C137.29147766 134.90333282 136.70795532 134.55666565 136.10675049 134.19949341 C133.18014669 132.46043034 130.25421171 130.72024594 127.32861328 128.97949219 C122.49400174 126.10439828 117.65451845 123.23759919 112.8125 120.375 C111.92997559 119.85325195 111.04745117 119.33150391 110.13818359 118.79394531 C102.42594572 114.24048052 94.68865438 109.73042077 86.94921875 105.22338867 C79.49184705 100.87785998 72.05636692 96.49652193 64.62963867 92.09887695 C56.42751848 87.24506533 48.20487772 82.42655229 39.97817993 77.61456299 C33.07824487 73.57830358 26.1889761 69.52554278 19.32421875 65.4296875 C18.70432571 65.06029556 18.08443268 64.69090363 17.445755 64.31031799 C14.48310399 62.54478362 11.52252971 60.77595536 8.56567383 59.00073242 C7.51275146 58.37271729 6.4598291 57.74470215 5.375 57.09765625 C4.45460938 56.54601807 3.53421875 55.99437988 2.5859375 55.42602539 C-2.39978249 52.3546757 -2.39978249 52.3546757 -7.75 53.17578125 Z " fill="#005C9E" transform="translate(516,225)"/>
<path d="M0 0 C12.77686404 8.29773723 21.35012282 20.0012769 24.625 35.125 C25.88612517 50.08455371 24.39595144 62.46487947 15.6015625 74.96875 C14.37994277 77.05267254 14.37994277 77.05267254 15.16796875 79.078125 C17.03797672 81.70516032 19.11236361 84.0165077 21.3125 86.375 C24.21134041 89.50492235 27.09766759 92.63596272 29.875 95.875 C35.00323215 101.77186648 40.40431146 107.42429168 45.74902344 113.12402344 C48.77369492 116.35023471 51.79385438 119.5806508 54.8125 122.8125 C55.38701904 123.42754395 55.96153809 124.04258789 56.5534668 124.67626953 C61.94801136 130.4583863 67.29482386 136.28356207 72.625 142.125 C73.181875 141.93164062 73.73875 141.73828125 74.3125 141.5390625 C75.075625 141.27867187 75.83875 141.01828125 76.625 140.75 C77.3675 140.49476563 78.11 140.23953125 78.875 139.9765625 C93.77713794 135.36198001 108.06347962 135.41367837 122.2265625 142.41015625 C135.68915244 149.89168843 144.30367737 160.5445544 149.625 174.875 C153.12021489 188.74163683 150.77094342 203.18959541 144.4375 215.8125 C136.69658385 228.69035438 125.17039623 237.08074231 110.86328125 241.2109375 C96.82212979 244.58120574 83.86429609 241.68876079 71.375 234.875 C59.02708495 227.27628305 50.86308877 216.1651982 47.28515625 202.0703125 C45.19071809 191.09353969 45.41275151 179.76719836 49.9453125 169.47265625 C50.82664532 167.19639544 50.82664532 167.19639544 50.08984375 165.19140625 C47.9908123 162.23037254 45.55735844 159.62456174 43.0625 157 C41.96823607 155.83251273 40.87449015 154.66453974 39.78125 153.49609375 C39.24242187 152.9222998 38.70359375 152.34850586 38.1484375 151.75732422 C36.09017852 149.5519525 34.07383186 147.31067348 32.0625 145.0625 C27.88212377 140.39656283 23.645988 135.7843894 19.3984375 131.1796875 C17.31501629 128.90441222 15.28134574 126.59037442 13.2578125 124.26171875 C9.63644888 120.1092218 5.90016488 116.07507216 2.125 112.0625 C1.49980469 111.39412109 0.87460937 110.72574219 0.23046875 110.03710938 C-1.01493252 108.71048628 -2.26743015 107.3904851 -3.52734375 106.07763672 C-4.77723132 104.75673281 -5.99829256 103.40804601 -7.19140625 102.03564453 C-8.84251128 100.20627459 -10.38428841 98.57807629 -12.375 97.125 C-15.39305546 97.03296936 -15.39305546 97.03296936 -18.375 98.125 C-26.98861306 98.59797559 -34.78343269 98.57138493 -43.04296875 95.87890625 C-43.81253906 95.63011719 -44.58210937 95.38132812 -45.375 95.125 C-46.15746094 94.7846875 -46.93992187 94.444375 -47.74609375 94.09375 C-50.99847843 94.13241133 -51.42615984 94.78667685 -53.6796875 97.02734375 C-54.88641904 98.35749864 -56.07573884 99.70359465 -57.25 101.0625 C-57.87422852 101.75891602 -58.49845703 102.45533203 -59.14160156 103.17285156 C-60.9021342 105.14343205 -62.64143409 107.13070321 -64.375 109.125 C-65.07367188 109.91519531 -65.77234375 110.70539063 -66.4921875 111.51953125 C-67.5616321 112.7348092 -68.62442081 113.95598451 -69.6796875 115.18359375 C-71.82655051 117.64209816 -74.04037132 120.035289 -76.25 122.4375 C-79.61226077 126.11513168 -82.82156857 129.86188312 -85.9375 133.75 C-89.46147152 138.11922748 -93.21893201 142.07198171 -97.23046875 145.9921875 C-103.9704536 152.28195689 -103.9704536 152.28195689 -108.375 160.125 C-107.35976019 162.93947124 -107.35976019 162.93947124 -105.625 165.8125 C-99.15318128 178.12077624 -98.17585763 192.676766 -102 206.125 C-107.06420818 220.28338484 -115.91377819 231.01296717 -129.4765625 237.640625 C-142.28035998 243.16881548 -157.33214074 244.61953116 -170.5390625 239.4453125 C-186.20493898 232.15183281 -197.08687696 222.04327101 -203.3125 205.625 C-207.07702608 191.08451802 -204.86056487 175.88639342 -197.625 162.9375 C-189.38330653 150.11252063 -178.96788998 142.52415322 -164.375 138.125 C-163.76527344 137.93164062 -163.15554688 137.73828125 -162.52734375 137.5390625 C-152.49540239 135.60914275 -141.9861144 137.06691815 -132.375 140.125 C-132.1071167 139.53493164 -131.8392334 138.94486328 -131.56323242 138.33691406 C-130.36326517 136.10315542 -129.10887987 134.56226575 -127.36328125 132.734375 C-126.77377686 132.11135498 -126.18427246 131.48833496 -125.5769043 130.84643555 C-124.95340088 130.19586182 -124.32989746 129.54528809 -123.6875 128.875 C-122.40796904 127.52297253 -121.12931233 126.17011712 -119.8515625 124.81640625 C-119.24344727 124.1733252 -118.63533203 123.53024414 -118.00878906 122.86767578 C-115.60460326 120.30325883 -113.29539844 117.66479292 -111.00390625 115 C-109.03834911 112.73748819 -107.01826691 110.52809317 -105 108.3125 C-101.13343787 104.02863605 -97.46978327 99.61369972 -93.83984375 95.12890625 C-90.49720465 91.0552304 -87.06455767 87.06212194 -83.6237793 83.07128906 C-82.66918713 81.96372459 -81.71838046 80.85288411 -80.77172852 79.73852539 C-79.82671703 78.64683147 -78.85734521 77.57583506 -77.86694336 76.52514648 C-75.08854382 73.65376208 -75.08854382 73.65376208 -74.47265625 69.88671875 C-74.79105469 69.20222656 -75.10945312 68.51773438 -75.4375 67.8125 C-80.65220764 56.06262227 -81.561287 40.93324916 -77.8125 28.625 C-72.05768128 14.1977097 -62.47887063 3.59447458 -48.375 -2.875 C-32.45887628 -9.66197583 -15.04412345 -8.5837341 0 0 Z " fill="#005B9D" transform="translate(539.375,347.875)"/>
<path d="M0 0 C3.97317813 3.60358017 6.46864633 7.28280442 6.84765625 12.74609375 C6.49203004 17.88966314 5.21317085 21.55022188 1.6875 25.4375 C-3.05506901 28.74698837 -7.4899031 30.3732745 -13.3125 29.4375 C-18.78178617 27.20240565 -22.43029788 24.09057611 -24.75390625 18.6171875 C-26.10871194 13.33060305 -25.0352313 8.96969035 -22.75 4.125 C-16.1599526 -3.1409497 -8.75409757 -4.12929131 0 0 Z " fill="#F9FBFC" transform="translate(521.3125,379.5625)"/>
<path d="M0 0 C4.36872308 2.18436154 7.48211211 4.80352018 10 9 C11.2669752 13.60797146 11.24234197 17.14467538 9.9375 21.75 C7.3930808 26.01805801 4.50518472 28.74740764 0 31 C-4.9252115 31.54035594 -8.86941718 31.54435469 -13.375 29.375 C-18.29588696 24.92276894 -20.69733245 20.84308387 -21.1640625 14.2421875 C-20.79395012 9.18398494 -18.07801409 5.97534608 -14.375 2.625 C-9.68182858 -0.58611729 -5.59290325 -0.61952159 0 0 Z " fill="#FAFCFD" transform="translate(643,522)"/>
<path d="M0 0 C4.84115976 2.33092877 7.70301121 5.14098526 10 10 C10.77379561 15.29813119 10.67768515 19.56643525 8.375 24.4375 C4.25592051 28.88176997 1.13066792 31.22384379 -5 31.5 C-9.70242401 31.2952398 -12.4080316 30.16435311 -16 27 C-19.36612181 23.26997313 -20.86721491 20.75940241 -21.25 15.6875 C-20.93527706 11.04533663 -19.89831305 7.87806438 -16.53515625 4.55078125 C-11.04036364 -0.13792932 -7.08445037 -0.77383996 0 0 Z " fill="#FAFCFD" transform="translate(392,522)"/>
<path d="M0 0 C1 3 1 3 -0.125 5.5625 C-2.23794891 8.30933359 -3.72518425 9.02640613 -7 10 C-6.57847656 9.44570313 -6.15695312 8.89140625 -5.72265625 8.3203125 C-5.17480469 7.59585938 -4.62695312 6.87140625 -4.0625 6.125 C-3.51722656 5.40570312 -2.97195313 4.68640625 -2.41015625 3.9453125 C-0.96035376 2.05642921 -0.96035376 2.05642921 0 0 Z " fill="#064793" transform="translate(653,542)"/>
</svg>
